# xmcd
#
# Track frame offsets:
#	183
#	14330
#	25410
#	41855
#	56095
#	70353
#	87600
#	101330
#	114195
#	127223
#	140918
#	154615
#
# Disc length: 2315 seconds
#
# Revision: 1
# Processed by: cddbd v1.4PL0 Copyright (c) Steve Scherf et al.
# Submitted via: audiograbber 1.82.01
#
DISCID=ae09090c
DTITLE=Dalibor Janda - Deset Prstu Pro Zivot
DYEAR=1900
DGENRE=
TTITLE0=Pada Hvezda
TTITLE1=Kdyz Laska Dostane Spad
TTITLE2=Bohuzel
TTITLE3=Ofsajd
TTITLE4=Stolety Starec
TTITLE5=Nadoraz
TTITLE6=Modre Nad Hlavou
TTITLE7=Hledal Jsem Lasku
TTITLE8=Tvrde Musis Dal
TTITLE9=Hadej
TTITLE10=Mas Se Lip Nez Ja
TTITLE11=Deset Prstu Pro Zivot
EXTD=
EXTT0=
EXTT1=
EXTT2=
EXTT3=
EXTT4=
EXTT5=
EXTT6=
EXTT7=
EXTT8=
EXTT9=
EXTT10=
EXTT11=
PLAYORDER=
